<svg t="1734223791633" class="icon" viewBox="0 0 1024 1024" version="1.1" xmlns="http://www.w3.org/2000/svg" p-id="4740" width="32" height="32"><path d="M155.488 433.952c8.235 0 16.33 0.864 24.288 2.592 7.957 1.739 16.33 4.427 25.11 8.075v64c-12.438-15.147-27.809-22.71-46.102-22.71-8.053 0-15.499 1.462-22.368 4.374a54.432 54.432 0 0 0-17.707 11.904 54.752 54.752 0 0 0-11.648 17.909 58.624 58.624 0 0 0-4.266 22.421c0 8.214 1.429 15.776 4.266 22.699 2.827 6.933 6.763 12.95 11.798 18.048a55.317 55.317 0 0 0 17.706 12.032c6.763 2.923 14.08 4.373 21.942 4.373 17.205 0 32.661-7.285 46.378-21.866v63.445l-5.482 1.92c-8.235 2.912-15.915 5.045-23.051 6.421-7.147 1.366-14.187 2.048-21.13 2.048-14.273 0-27.947-2.688-41.035-8.064a107.307 107.307 0 0 1-34.571-22.698c-9.973-9.76-17.973-21.334-24.01-34.731-6.038-13.408-9.067-28.032-9.067-43.893s2.986-30.4 8.928-43.627a108.565 108.565 0 0 1 23.872-34.176 109.227 109.227 0 0 1 34.72-22.432 108.587 108.587 0 0 1 41.429-8.064z m211.008 66.453c12.075 0 23.275 1.867 33.61 5.611 10.347 3.733 19.307 8.928 26.902 15.573a69.941 69.941 0 0 1 17.707 23.798c4.202 9.216 6.293 19.37 6.293 30.506 0 11.115-2.133 21.28-6.443 30.486a72.395 72.395 0 0 1-17.706 23.786c-7.488 6.656-16.502 11.808-27.019 15.456-10.528 3.648-21.91 5.472-34.165 5.472-12.075 0-23.243-1.824-33.494-5.472-10.24-3.648-19.061-8.853-26.474-15.594a72.33 72.33 0 0 1-17.419-24.203c-4.213-9.387-6.315-19.819-6.315-31.307 0-10.389 2.102-20.096 6.315-29.12a71.552 71.552 0 0 1 17.557-23.52c7.499-6.656 16.427-11.904 26.752-15.733 10.347-3.83 21.643-5.739 33.899-5.739z m147.488 5.195v79.04c0 17.312 8.416 25.973 25.248 25.973s25.248-8.661 25.248-25.973V505.6h49.664v88.608c0 18.955-6.261 33.173-18.795 42.667-12.533 9.472-31.242 14.218-56.117 14.218-24.885 0-43.595-4.746-56.128-14.229-12.523-9.472-18.795-23.701-18.795-42.667V505.6h49.675z m277.29-86.688v226.987h-49.951v-15.606c-10.603 13.312-24.96 19.968-43.083 19.968-10.24 0-19.67-1.92-28.267-5.749a69.92 69.92 0 0 1-22.506-15.861 72.555 72.555 0 0 1-14.944-23.787 80.32 80.32 0 0 1-5.355-29.547c0-10.026 1.696-19.541 5.077-28.565a71.552 71.552 0 0 1 14.4-23.659 68.17 68.17 0 0 1 22.368-16c8.694-3.914 18.251-5.877 28.683-5.877 17.557 0 32.107 6.101 43.627 18.325v-100.64h49.952z m-522.602 0v226.987h-49.664V418.912h49.664z m97.813 124.427a32.107 32.107 0 0 0-12.48 2.453 30.187 30.187 0 0 0-10.154 6.848c-2.838 2.912-5.12 6.293-6.859 10.112a29.419 29.419 0 0 0-2.603 12.31c0 4.746 0.864 9.066 2.603 12.991 1.739 3.915 4.021 7.339 6.859 10.251 2.837 2.923 6.218 5.205 10.154 6.837 3.936 1.643 8.107 2.464 12.48 2.464a32.107 32.107 0 0 0 12.491-2.453 30.187 30.187 0 0 0 10.155-6.848c2.837-2.912 5.12-6.336 6.858-10.25 1.739-3.915 2.614-8.16 2.614-12.715 0-4.374-0.875-8.534-2.614-12.448a34.795 34.795 0 0 0-6.858-10.251 30.187 30.187 0 0 0-10.155-6.837 32.107 32.107 0 0 0-12.48-2.454z m344.384 0.544a32.107 32.107 0 0 0-12.48 2.464 30.187 30.187 0 0 0-10.165 6.837 36.096 36.096 0 0 0-6.859 9.984c-1.738 3.733-2.602 7.787-2.602 12.16a32.501 32.501 0 0 0 9.184 22.976c2.837 2.923 6.229 5.205 10.154 6.837 3.947 1.643 8.192 2.464 12.768 2.464a32.107 32.107 0 0 0 12.48-2.453 30.187 30.187 0 0 0 10.155-6.848c2.837-2.912 5.12-6.293 6.859-10.112 1.738-3.84 2.613-7.936 2.613-12.31 0-4.373-0.875-8.522-2.613-12.437a34.795 34.795 0 0 0-6.859-10.261 30.187 30.187 0 0 0-10.155-6.827 32.107 32.107 0 0 0-12.48-2.474zM680.79 251.53c9.664 0 18.635 1.493 26.902 4.501a66.613 66.613 0 0 1 21.525 12.49c6.08 5.334 10.795 11.702 14.165 19.094 3.36 7.37 5.046 15.52 5.046 24.437 0 8.918-1.718 17.067-5.163 24.459a58.048 58.048 0 0 1-14.165 19.072c-5.995 5.333-13.206 9.472-21.632 12.395a82.784 82.784 0 0 1-27.339 4.384 79.221 79.221 0 0 1-26.784-4.384 61.856 61.856 0 0 1-21.195-12.502 58.005 58.005 0 0 1-13.952-19.413c-3.36-7.52-5.045-15.893-5.045-25.099 0-8.341 1.685-16.117 5.045-23.36a57.376 57.376 0 0 1 14.059-18.858 66.848 66.848 0 0 1 21.408-12.608c8.277-3.072 17.312-4.608 27.125-4.608z m296.662-65.344v182.005h-39.958v-12.49c-8.49 10.666-19.978 16-34.474 16a54.88 54.88 0 0 1-40.63-17.323 58.197 58.197 0 0 1-11.968-19.072 64.533 64.533 0 0 1-4.277-23.68c0-8.054 1.355-15.68 4.053-22.934a57.397 57.397 0 0 1 11.531-18.954 54.56 54.56 0 0 1 17.899-12.832 55.072 55.072 0 0 1 22.954-4.715c14.048 0 25.696 4.896 34.912 14.688v-80.693h39.968z m-560.064 16.661l28.544 106.795 35.136-106.795h34.261l35.136 106.795 28.555-106.795h45.013l-49.408 165.344h-43.925l-32.502-95.83-32.501 95.83h-43.925l-49.398-165.344h45.014z m421.952 50.443c1.237 0 2.666 0.138 4.277 0.426v37.942a37.813 37.813 0 0 0-17.13-3.947c-9.227 0-16.14 2.741-20.747 8.224-4.619 5.483-6.923 13.493-6.923 24.021v48.235h-39.744v-112.49h39.744v18.42c4.245-6.72 9.44-11.882 15.595-15.466 6.144-3.584 13.322-5.365 21.514-5.365h3.414z m-158.55 32.672c-3.52 0-6.848 0.661-9.994 1.973a24.15 24.15 0 0 0-8.118 5.483 28.403 28.403 0 0 0-5.493 8.106c-1.387 3.072-2.09 6.368-2.09 9.878 0 3.797 0.693 7.274 2.09 10.41 1.387 3.147 3.221 5.888 5.493 8.224 2.262 2.347 4.971 4.16 8.118 5.483s6.485 1.973 9.994 1.973c3.52 0 6.848-0.65 9.995-1.973 3.147-1.312 5.856-3.136 8.128-5.483 2.261-2.346 4.096-5.077 5.483-8.213 1.386-3.147 2.09-6.55 2.09-10.208 0-3.51-0.693-6.827-2.09-9.973a27.904 27.904 0 0 0-5.483-8.224 24.15 24.15 0 0 0-8.128-5.483 25.643 25.643 0 0 0-9.995-1.973z m232.32 0.437c-3.52 0-6.848 0.661-9.994 1.973a24.15 24.15 0 0 0-8.118 5.483 28.95 28.95 0 0 0-5.493 8c-1.387 2.997-2.09 6.25-2.09 9.76a26.112 26.112 0 0 0 7.36 18.421c2.271 2.347 4.98 4.16 8.127 5.483s6.55 1.973 10.208 1.973c3.52 0 6.848-0.65 9.995-1.973 3.147-1.312 5.856-3.136 8.128-5.483a28.59 28.59 0 0 0 5.483-8.106c1.386-3.072 2.09-6.368 2.09-9.878 0-3.509-0.693-6.826-2.09-9.973a27.904 27.904 0 0 0-5.483-8.224 24.15 24.15 0 0 0-8.128-5.483 25.643 25.643 0 0 0-9.995-1.973z" fill="#B0B3B8" p-id="4741"></path><path d="M115.733 287.68c-4.821-5.899-10.794-8.853-17.909-8.853-3.125 0-6.016 0.576-8.683 1.706-2.666 1.142-4.96 2.688-6.88 4.64-1.92 1.963-3.434 4.288-4.533 6.987a22.933 22.933 0 0 0-1.653 8.747c0 3.2 0.554 6.144 1.653 8.853a21.493 21.493 0 0 0 19.99 13.44c6.687-0.01 12.693-2.859 18.026-8.533v24.725l-2.133 0.747c-3.2 1.141-6.187 1.973-8.96 2.506-2.774 0.534-5.504 0.8-8.214 0.8a41.387 41.387 0 0 1-15.936-3.146 41.685 41.685 0 0 1-13.44-8.854 44.032 44.032 0 0 1-9.322-13.536 41.301 41.301 0 0 1-3.52-17.109c0-6.187 1.152-11.85 3.466-17.013 2.304-5.152 5.398-9.6 9.28-13.334 3.872-3.733 8.363-6.634 13.483-8.736 5.12-2.09 10.485-3.146 16.107-3.146 3.2 0 6.336 0.341 9.429 1.013 3.093 0.672 6.347 1.728 9.76 3.147v24.96z m26.454-34.976v88.501H122.88v-88.501h19.307z m27.189 60.885c0 1.856 0.341 3.542 1.013 5.067a13.667 13.667 0 0 0 2.667 4 11.733 11.733 0 0 0 3.947 2.667c1.525 0.64 3.146 0.96 4.853 0.96 1.707 0 3.317-0.32 4.843-0.96a11.733 11.733 0 0 0 3.946-2.667c1.11-1.141 1.995-2.475 2.667-4 0.683-1.525 1.013-3.179 1.013-4.96 0-1.707-0.33-3.317-1.013-4.843a13.568 13.568 0 0 0-2.667-4 11.733 11.733 0 0 0-3.946-2.666 12.437 12.437 0 0 0-4.843-0.96c-1.707 0-3.328 0.32-4.853 0.96a11.733 11.733 0 0 0-3.947 2.666 13.69 13.69 0 0 0-2.667 3.947 11.565 11.565 0 0 0-1.013 4.8z m-20.373-0.213c0-4.053 0.821-7.83 2.453-11.35a28.015 28.015 0 0 1 6.827-9.173c2.922-2.592 6.389-4.64 10.4-6.133 4.021-1.493 8.405-2.24 13.173-2.24 4.693 0 9.045 0.736 13.056 2.187 4.021 1.461 7.499 3.488 10.453 6.08a27.39 27.39 0 0 1 6.88 9.28c1.632 3.584 2.454 7.552 2.454 11.882a27.84 27.84 0 0 1-9.387 21.174 30.805 30.805 0 0 1-10.507 6.016c-4.085 1.429-8.512 2.133-13.269 2.133-4.693 0-9.035-0.704-13.013-2.133a30.027 30.027 0 0 1-10.294-6.08 28.203 28.203 0 0 1-6.762-9.43 29.61 29.61 0 0 1-2.454-12.213z m91.818-26.87v30.827c0 6.742 3.264 10.123 9.814 10.123 6.528 0 9.802-3.381 9.802-10.133v-30.816h19.307v34.56c0 7.381-2.443 12.928-7.307 16.629-4.874 3.69-12.138 5.547-21.813 5.547-9.664 0-16.928-1.856-21.803-5.547-4.864-3.701-7.306-9.248-7.306-16.64v-34.55h19.306z m65.675 27.2a12.715 12.715 0 0 0 3.573 8.95 11.733 11.733 0 0 0 3.947 2.667c1.525 0.64 3.179 0.96 4.96 0.96 1.707 0 3.328-0.32 4.853-0.96a11.733 11.733 0 0 0 3.947-2.667 14.06 14.06 0 0 0 2.667-3.947 11.872 11.872 0 0 0 0-9.653 13.568 13.568 0 0 0-2.667-3.99 11.733 11.733 0 0 0-3.947-2.666 12.437 12.437 0 0 0-4.853-0.96c-1.707 0-3.328 0.32-4.853 0.96a11.733 11.733 0 0 0-3.947 2.667 14.027 14.027 0 0 0-2.667 3.893 11.147 11.147 0 0 0-1.013 4.736z m24.32-61.002h19.403v88.501h-19.414v-6.08c-4.117 5.195-9.706 7.787-16.736 7.787a26.613 26.613 0 0 1-19.733-8.427 28.31 28.31 0 0 1-5.803-9.269 31.413 31.413 0 0 1-2.08-11.52c0-3.904 0.662-7.616 1.974-11.136 1.312-3.52 3.178-6.592 5.6-9.227a26.496 26.496 0 0 1 19.84-8.533c6.816 0 12.469 2.39 16.949 7.147v-39.243z" fill="#DDDFE3" p-id="4742"></path><path d="M169.355 710.24l18.848 77.237 23.2-77.237h22.613l23.2 77.237 18.848-77.237h29.717l-32.618 119.595H244.16l-21.45-69.312-21.462 69.312h-28.981L139.648 710.24h29.717z m156.522 78.507a19.947 19.947 0 0 0 5.014 13.482 15.957 15.957 0 0 0 23.914 0c1.494-1.685 2.71-3.669 3.627-5.941a19.52 19.52 0 0 0 1.376-7.381 19.093 19.093 0 0 0-1.387-7.211 20.405 20.405 0 0 0-3.616-5.952 15.957 15.957 0 0 0-23.925 0c-1.493 1.696-2.699 3.648-3.627 5.867-0.906 2.218-1.376 4.608-1.376 7.146z m-27.68-0.32c0-6.016 1.11-11.648 3.328-16.886 2.23-5.226 5.312-9.781 9.28-13.642a43.477 43.477 0 0 1 14.134-9.12 47.093 47.093 0 0 1 17.909-3.328c6.379 0 12.299 1.077 17.76 3.253 5.461 2.165 10.197 5.173 14.208 9.035 4.01 3.861 7.125 8.458 9.344 13.802 2.23 5.334 3.339 11.232 3.339 17.686s-1.142 12.341-3.414 17.685c-2.261 5.333-5.386 9.941-9.344 13.803a41.163 41.163 0 0 1-14.282 8.96 50.336 50.336 0 0 1-18.048 3.168c-6.379 0-12.267-1.056-17.686-3.168a40.245 40.245 0 0 1-13.994-9.046 42.07 42.07 0 0 1-9.206-14.037 47.637 47.637 0 0 1-3.328-18.155z m95.926-39.968h26.24v13.333c2.794-4.875 6.229-8.597 10.293-11.19 4.053-2.591 8.79-3.882 14.208-3.882h2.24c0.821 0 1.77 0.107 2.827 0.32v27.435a23.19 23.19 0 0 0-11.307-2.859c-6.08 0-10.656 1.984-13.696 5.952-3.05 3.968-4.565 9.76-4.565 17.365v34.902h-26.24v-81.376z m84.32 40.448c0 2.645 0.437 5.109 1.312 7.381 0.864 2.272 2.048 4.256 3.552 5.941a15.957 15.957 0 0 0 12.106 5.398 15.957 15.957 0 0 0 11.958-5.398c1.493-1.685 2.709-3.648 3.626-5.866 0.918-2.219 1.376-4.598 1.376-7.136a19.093 19.093 0 0 0-1.386-7.222 20.405 20.405 0 0 0-3.627-5.941 15.957 15.957 0 0 0-23.915 0c-1.493 1.685-2.698 3.627-3.626 5.792a17.92 17.92 0 0 0-1.376 7.05z m33.066-90.72h26.379v131.648h-26.39v-9.046c-5.6 7.723-13.194 11.584-22.762 11.584-5.408 0-10.39-1.109-14.933-3.338a37.163 37.163 0 0 1-11.883-9.195 42.859 42.859 0 0 1-7.893-13.803 50.667 50.667 0 0 1-2.838-17.13c0-5.814 0.896-11.339 2.688-16.576 1.782-5.227 4.32-9.814 7.606-13.718a36.31 36.31 0 0 1 11.818-9.28c4.587-2.272 9.643-3.413 15.147-3.413 9.28 0 16.96 3.552 23.05 10.635v-58.368z m157.771 52.021c-6.57-8.779-14.688-13.163-24.352-13.163-4.256 0-8.192 0.854-11.819 2.539-3.626 1.685-6.741 3.99-9.344 6.901a32.213 32.213 0 0 0-6.165 10.39c-1.493 4.01-2.24 8.352-2.24 13.002 0 4.758 0.747 9.142 2.24 13.163 1.493 4.021 3.573 7.51 6.23 10.475a29.556 29.556 0 0 0 9.354 6.976 26.773 26.773 0 0 0 11.595 2.538c9.088 0 17.258-4.234 24.501-12.693v36.8l-2.901 1.11a78.336 78.336 0 0 1-12.171 3.733 54.112 54.112 0 0 1-11.168 1.184 52.107 52.107 0 0 1-21.675-4.683 56.533 56.533 0 0 1-18.261-13.163 66.421 66.421 0 0 1-17.472-45.6c0-9.194 1.568-17.632 4.715-25.301a63.36 63.36 0 0 1 12.608-19.83 57.44 57.44 0 0 1 18.346-13.002 52.928 52.928 0 0 1 21.888-4.683c4.352 0 8.63 0.502 12.832 1.515 4.203 1.003 8.619 2.56 13.259 4.672v37.12z m33.301-52.021v131.648h-26.24V698.187h26.24z m34.304 90.56a19.947 19.947 0 0 0 5.014 13.482 15.957 15.957 0 0 0 23.914 0c1.494-1.685 2.71-3.669 3.627-5.941a19.52 19.52 0 0 0 1.376-7.381 19.093 19.093 0 0 0-1.387-7.211 20.405 20.405 0 0 0-3.616-5.952 15.957 15.957 0 0 0-23.925 0c-1.493 1.696-2.699 3.648-3.627 5.867-0.906 2.218-1.376 4.608-1.376 7.146z m-27.68-0.32c0-6.016 1.11-11.648 3.328-16.886 2.23-5.226 5.312-9.781 9.28-13.642a43.477 43.477 0 0 1 14.134-9.12 47.093 47.093 0 0 1 17.909-3.328c6.379 0 12.299 1.077 17.76 3.253 5.461 2.165 10.197 5.173 14.208 9.035 4.01 3.861 7.125 8.458 9.344 13.802 2.23 5.334 3.339 11.232 3.339 17.686s-1.142 12.341-3.414 17.685c-2.261 5.333-5.386 9.941-9.344 13.803a41.163 41.163 0 0 1-14.282 8.96 50.336 50.336 0 0 1-18.048 3.168c-6.379 0-12.267-1.056-17.686-3.168a40.245 40.245 0 0 1-13.994-9.046 42.07 42.07 0 0 1-9.206-14.037 47.637 47.637 0 0 1-3.328-18.155z m122.166-39.968v45.845c0 10.048 4.437 15.072 13.333 15.072s13.333-5.024 13.333-15.072v-45.845h26.24v51.392c0 10.997-3.306 19.253-9.92 24.746-6.624 5.504-16.512 8.246-29.653 8.246-13.141 0-23.03-2.742-29.653-8.246-6.614-5.493-9.92-13.749-9.92-24.746v-51.392h26.24z m86.645 40.448c0 2.645 0.427 5.109 1.301 7.381 0.875 2.272 2.059 4.256 3.552 5.941a15.957 15.957 0 0 0 12.107 5.398 15.957 15.957 0 0 0 11.957-5.398c1.494-1.685 2.71-3.648 3.627-5.866 0.917-2.219 1.387-4.598 1.387-7.136a19.093 19.093 0 0 0-1.387-7.222 20.405 20.405 0 0 0-3.627-5.941 15.957 15.957 0 0 0-23.914 0 21.09 21.09 0 0 0-3.627 5.792 17.92 17.92 0 0 0-1.387 7.05z m33.056-90.72h26.379v131.648h-26.379v-9.046c-5.61 7.723-13.195 11.584-22.763 11.584-5.418 0-10.389-1.109-14.933-3.338a37.163 37.163 0 0 1-11.893-9.195 42.859 42.859 0 0 1-7.894-13.803 50.667 50.667 0 0 1-2.826-17.13c0-5.814 0.885-11.339 2.677-16.576 1.792-5.227 4.33-9.814 7.616-13.718a36.31 36.31 0 0 1 11.808-9.28c4.587-2.272 9.643-3.413 15.147-3.413 9.28 0 16.96 3.552 23.061 10.635v-58.368z" fill="#BCBFC6" p-id="4743"></path></svg>