<svg t="1734223944165" class="icon" viewBox="0 0 1024 1024" version="1.1" xmlns="http://www.w3.org/2000/svg" p-id="6674" width="32" height="32"><path d="M105.667048 871.472762v-804.571429a40.618667 40.618667 0 0 0-81.286096 0v837.046857a97.52381 97.52381 0 0 0 97.52381 97.52381h837.095619a40.618667 40.618667 0 1 0 0-81.237333h-804.571429a48.761905 48.761905 0 0 1-48.761904-48.761905z" fill="#AAAAAA" p-id="6675"></path><path d="M731.428571 121.904762m0 73.142857l0 0q0 73.142857-73.142857 73.142857l-341.333333 0q-73.142857 0-73.142857-73.142857l0 0q0-73.142857 73.142857-73.142857l341.333333 0q73.142857 0 73.142857 73.142857Z" fill="#AAAAAA" p-id="6676"></path><path d="M633.904762 390.095238m0 73.142857l0 0q0 73.142857-73.142857 73.142857l-243.809524 0q-73.142857 0-73.142857-73.142857l0 0q0-73.142857 73.142857-73.142857l243.809524 0q73.142857 0 73.142857 73.142857Z" fill="#AAAAAA" p-id="6677"></path><path d="M877.714286 658.285714m0 73.142857l0 0q0 73.142857-73.142857 73.142858l-487.619048 0q-73.142857 0-73.142857-73.142858l0 0q0-73.142857 73.142857-73.142857l487.619048 0q73.142857 0 73.142857 73.142857Z" fill="#AAAAAA" p-id="6678"></path></svg>